<svg width="32" height="32" fill="none" xmlns="http://www.w3.org/2000/svg"><rect width="32" height="32" rx="16" fill="#333A4C"/><path fill-rule="evenodd" clip-rule="evenodd" d="M7.385 9.846a2.462 2.462 0 012.461-2.461h1.126c.706 0 1.321.48 1.492 1.165l.907 3.629a1.538 1.538 0 01-.57 1.604l-1.06.796c-.111.083-.135.204-.104.289a9.258 9.258 0 005.495 5.495c.085.031.205.007.29-.104l.795-1.06a1.538 1.538 0 011.604-.57l3.63.907a1.54 1.54 0 011.164 1.493v1.125a2.462 2.462 0 01-2.461 2.462h-1.846c-7.137 0-12.923-5.787-12.923-12.923V9.846z" fill="#fff"/></svg>